PathFileType	4	(X/Y/Z)	DARI_DATA/Captury_Subj5_bilateral_squat03.trc
DataRate	CameraRate	NumFrames	NumMarkers	Units	OrigDataRate	OrigDataStartFrame	OrigNumFrames
60	60	8	47	mm	59.99879837036133	207	236
Frame#	Time		LeftUpLeg_		RightUpLeg_		LeftLeg_		RightLeg_		LeftFoot_		RightFoot_		LeftToeBase_		RightToeBase_		Knee_Lateral_r		Knee_Lateral_l		Ankle_Lateral_r		Ankle_Lateral_l		LeftArm_		LeftForeArm_		LeftHand_		LeftHandEE		RightArm_		RightForeArm_		RightHand_		RightHandEE		Spine_		Spine1_		Spine2_		Spine3_		Spine4_		Spine5_		Spine_x		Spine_y		Spine_z		RASI		LASI		RIPS		LIPS		RTHI		LTHI		RTIB		LTIB		RTOE		LTOE		RHEE		LHEE		RHipAngles		LHipAngles		RKneeAngles		LKneeAngles		RAnkleAngles		LAnkleAngles
			X1	Y1	Z1	X2	Y2	Z2	X3	Y3	Z3	X4	Y4	Z4	X5	Y5	Z5	X6	Y6	Z6	X7	Y7	Z7	X8	Y8	Z8	X9	Y9	Z9	X10	Y10	Z10	X11	Y11	Z11	X12	Y12	Z12	X13	Y13	Z13	X14	Y14	Z14	X15	Y15	Z15	X16	Y16	Z16	X17	Y17	Z17	X18	Y18	Z18	X19	Y19	Z19	X20	Y20	Z20	X21	Y21	Z21	X22	Y22	Z22	X23	Y23	Z23	X24	Y24	Z24	X25	Y25	Z25	X26	Y26	Z26	X27	Y27	Z27	X28	Y28	Z28	X29	Y29	Z29	X30	Y30	Z30	X31	Y31	Z31	X32	Y32	Z32	X33	Y33	Z33	X34	Y34	Z34	X35	Y35	Z35	X36	Y36	Z36	X37	Y37	Z37	X38	Y38	Z38	X39	Y39	Z39	X40	Y40	Z40	X41	Y41	Z41	X42	Y42	Z42	X43	Y43	Z43	X44	Y44	Z44	X45	Y45	Z45	X46	Y46	Z46	X47	Y47	Z47

207	3.43333	-99.18729	982.30280	79.49786	92.21608	985.20850	74.92120	-148.57018	520.72736	37.17618	142.10059	524.53107	24.23005	-186.07025	92.90952	73.28577	186.08011	96.67685	51.52291	-214.27884	32.33795	-56.25678	196.86415	34.63889	-79.93397	195.51550	527.58264	23.99014	-201.95082	523.46967	39.52337	239.63892	101.05556	72.60217	-238.60440	96.64441	96.91351	-151.13747	1569.78271	114.56642	-250.86598	1599.55310	-205.27788	-248.71802	1630.60437	-492.72009	-239.39400	1630.60681	-597.82263	158.50085	1560.67236	102.83197	256.84271	1555.68774	-218.78342	247.47990	1595.56213	-504.98993	244.66728	1601.81055	-610.28247	-4.68211	1089.56348	94.34593	-5.91444	1203.19653	81.69483	-5.41676	1284.05103	103.60237	-4.07785	1375.80432	157.08214	0.07680	1528.29297	181.18205	1663134.00000	0.00000	1663136.00000	48.99843	1090.37842	93.06237	-5.54555	1143.21973	92.30135	-3.43067	1091.62793	147.99373	153.87415	1054.85999	-37.03270	-168.20914	1049.97046	-29.33133	39.53125	1059.26038	126.73450	-46.35762	1057.95642	128.78821	190.10773	776.57703	54.53519	-196.63333	772.86700	66.60019	204.86440	334.42657	19.69563	-211.58575	265.61670	38.42786	203.91467	17.71344	-160.03793	-227.24052	12.74540	-135.00290	178.98308	26.16560	110.51684	-196.35345	24.46770	134.21573	-7.51032	2.49286	0.88141	-6.79466	3.88709	0.83701	-4.07715	-0.52101	-0.03362	-4.25966	-0.83271	-0.06810	6.09102	5.04002	-4.50499	5.04751	4.23265	11.15831
208	3.45000	-99.14799	982.34357	79.63362	92.25085	985.36377	74.93942	-148.56223	520.73706	37.68790	141.89116	524.67145	24.14380	-186.40797	92.90833	73.30503	185.99730	96.83636	51.53258	-214.15002	32.38743	-56.36196	196.38544	34.54865	-79.83812	195.30618	527.70880	23.77552	-201.94467	523.48981	39.98169	239.58932	101.26394	72.51711	-238.96124	96.66711	96.88647	-151.38544	1569.76208	114.16924	-251.49640	1599.83191	-205.52757	-248.44032	1631.06458	-492.94183	-239.30244	1631.29358	-598.06042	158.21870	1560.23254	103.12343	257.03781	1555.91943	-218.35530	248.03725	1596.83411	-504.42657	245.17987	1602.17700	-609.76776	-4.70018	1089.67444	94.33896	-6.01157	1203.25208	81.64936	-5.56072	1284.05713	103.54798	-4.28105	1375.74719	157.04182	-0.21514	1528.17798	181.20065	1663134.00000	0.00000	1663136.00000	48.97910	1090.52148	93.02243	-5.59802	1143.32849	92.25196	-3.41775	1091.78259	147.98434	153.79851	1054.96362	-37.10732	-168.27715	1049.88135	-29.20817	39.55140	1059.42456	126.72516	-46.33544	1058.06921	128.83160	190.03789	776.70569	54.32527	-196.61426	772.91107	66.83499	204.68309	334.57690	19.57909	-211.76483	265.67123	38.60773	203.18355	17.49386	-159.93652	-226.84807	12.88730	-135.17400	179.13489	26.43610	110.68665	-196.73370	24.39996	134.15297	-7.55625	2.43405	0.78438	-6.78821	3.92430	0.74510	-4.10051	-0.49428	0.00547	-4.14483	-0.80474	-0.06161	6.17269	4.95043	-4.47511	5.07646	4.12156	11.02156
209	3.46667	-99.57217	982.16449	79.73425	91.81609	985.15179	74.60938	-148.94188	520.58643	37.42556	141.86076	524.48694	23.96273	-186.65814	92.80380	73.72674	186.26425	96.71466	51.84752	-214.06680	32.08760	-55.91982	196.25705	34.30125	-79.49414	195.27100	527.58667	23.44933	-202.32463	523.33234	39.72039	239.90607	101.19021	72.69415	-239.20483	96.57622	97.32063	-151.46622	1569.73022	113.89598	-252.04163	1600.08923	-205.62767	-248.50670	1631.20764	-493.04889	-239.09171	1632.08618	-598.13959	158.15141	1559.97058	103.41908	257.29764	1555.99316	-217.96330	248.41261	1597.77454	-503.91290	245.84721	1602.91846	-609.27148	-5.07173	1089.47156	94.27394	-6.38873	1203.07410	81.63904	-5.87549	1283.88818	103.57520	-4.47750	1375.57312	157.11089	-0.30088	1528.00964	181.33519	1663134.00000	0.00000	1663136.00000	48.60458	1090.30945	92.83663	-5.96442	1143.12659	92.21276	-3.66783	1091.55566	147.91721	153.12347	1054.79016	-37.54512	-168.93442	1049.76318	-28.92125	39.24728	1059.19922	126.54676	-46.63483	1057.85864	128.84647	189.79236	776.59589	53.86071	-197.01836	772.73291	66.76937	204.74332	334.41971	19.51174	-212.07408	265.50504	38.76686	202.78990	17.25111	-159.61557	-226.59651	12.53340	-134.74539	179.70859	26.36829	111.10038	-196.88486	24.32593	134.62570	-7.49509	2.50752	0.75229	-6.80495	3.89755	0.61649	-4.14676	-0.53099	0.01568	-4.28086	-0.80917	-0.04816	6.14495	4.89176	-4.42513	5.05242	4.02033	10.89282
210	3.48333	-99.90435	982.40503	79.65670	91.49595	985.27454	74.92947	-148.59171	520.69629	37.98760	141.54504	524.72937	23.20925	-186.64778	92.90063	73.77866	186.05678	97.02045	51.88162	-213.57343	32.44921	-56.09261	196.33649	34.56131	-79.41608	194.95697	527.81787	22.82004	-201.98317	523.37842	40.15136	239.66115	101.52310	72.81852	-239.24509	96.65711	97.26204	-151.33156	1569.71033	113.35555	-252.71001	1600.29736	-205.89238	-248.73370	1631.61743	-493.28589	-238.74202	1632.33594	-598.32458	158.22998	1559.70386	103.61224	257.56348	1556.10962	-217.71677	248.83188	1598.44958	-503.58887	246.18710	1603.83948	-608.93317	-5.36068	1089.60852	94.67170	-6.57196	1203.15918	82.16192	-6.04553	1283.89954	104.11278	-4.69523	1375.54871	157.58295	-0.42607	1527.94409	181.62079	1663134.00000	0.00000	1663136.00000	48.31901	1090.41333	93.34592	-6.21263	1143.26941	92.75019	-4.06470	1091.55029	148.32301	153.07922	1055.16614	-36.91589	-168.99890	1050.33740	-28.96117	38.87183	1059.22083	126.95476	-47.01567	1057.93323	129.07602	189.46928	776.74951	53.85867	-197.05545	772.82947	66.80407	204.50555	334.67844	19.18495	-211.88150	265.65210	38.93488	203.02756	17.57400	-159.53775	-225.82022	13.13206	-135.02100	179.46654	26.69278	111.15282	-196.95921	24.26507	134.48553	-7.49071	2.53391	0.75773	-6.55590	3.79149	0.60950	-4.38733	-0.49921	-0.02176	-4.12635	-0.70830	-0.03173	6.07141	4.89516	-4.39059	4.98683	3.96811	10.77499
211	3.50000	-99.71936	982.26245	78.72054	91.70003	985.12012	74.83683	-148.87335	520.48511	38.37989	141.74641	524.62695	22.65187	-187.02612	92.71432	74.36530	185.67227	96.91138	52.11869	-213.19530	32.34872	-55.70042	196.45721	34.38626	-79.10712	195.16074	527.69263	22.46998	-202.27087	523.25153	40.27031	239.22003	101.36150	73.21106	-239.73433	96.44472	97.60284	-151.49950	1569.76355	113.12215	-252.99924	1600.56653	-206.06650	-248.90414	1631.64758	-493.48428	-238.42207	1632.91614	-598.46997	158.08282	1559.46814	103.79723	257.75006	1556.18396	-217.43178	248.86443	1598.85779	-503.24951	246.82162	1604.97266	-608.56763	-5.23419	1089.44543	94.24139	-6.38601	1202.97571	81.84478	-5.95292	1283.65625	103.88941	-4.82167	1375.20093	157.47952	-0.69449	1527.53064	181.74075	1663134.00000	0.00000	1663136.00000	48.45085	1090.24695	93.15218	-6.07346	1143.10803	92.36150	-4.17383	1091.34180	147.89952	153.77963	1055.10107	-36.67780	-168.33060	1050.29224	-30.14252	38.85363	1059.02686	126.69284	-47.04243	1057.74451	128.43558	189.66263	776.58240	53.84171	-197.11121	772.78455	66.09945	204.49654	334.49683	19.10999	-212.12518	265.43124	39.25384	203.48337	17.40405	-159.20123	-225.02068	13.10689	-134.71144	178.73767	26.61584	111.38878	-197.46234	23.98508	134.94475	-7.52446	2.51127	0.72629	-6.31487	3.87302	0.57532	-4.55429	-0.54302	-0.07686	-3.98591	-0.80615	-0.00795	6.01080	4.97552	-4.39837	4.88568	3.95883	10.64529
212	3.51667	-99.72028	981.98279	78.69083	91.70198	984.84973	74.95481	-148.87662	520.18085	38.63437	142.02719	524.26208	23.88409	-187.47296	92.46237	74.76799	185.37276	96.41739	52.31671	-213.42111	32.28338	-55.42841	196.34097	34.24511	-79.06148	195.44005	527.35535	23.73427	-202.27731	522.95831	40.41652	238.92664	100.73870	73.42038	-240.21445	96.21107	97.92700	-151.43419	1569.57275	112.81013	-253.14493	1600.77063	-206.27299	-248.94318	1631.99927	-493.67328	-238.26112	1632.93640	-598.64227	158.20866	1559.38342	103.66354	258.30127	1556.11951	-217.43341	249.02428	1599.62280	-503.11362	246.88918	1605.43616	-608.44696	-5.25500	1089.19128	94.15691	-6.39271	1202.70325	81.67332	-5.95671	1283.38525	103.67813	-4.81864	1374.93176	157.24805	-0.63994	1527.25159	181.50525	1663134.00000	0.00000	1663136.00000	48.43084	1089.99536	93.10911	-6.09662	1142.85156	92.21157	-4.23715	1091.15247	147.81352	153.86465	1054.70044	-36.59515	-168.25040	1049.87622	-30.30839	38.80936	1058.81506	126.67984	-47.08799	1057.52856	128.35631	189.78891	776.31482	54.51959	-197.12433	772.51172	66.04961	204.51944	334.05615	19.88266	-212.36165	265.18500	39.53523	203.52686	17.50080	-159.19151	-225.12932	13.18373	-134.49133	178.13744	25.96775	111.36745	-197.88989	23.61794	135.21979	-7.45944	2.53532	0.71993	-6.33600	3.88173	0.50593	-4.27926	-0.65030	-0.10101	-3.96618	-0.76481	0.01964	5.99689	5.10607	-4.45978	4.77614	3.97550	10.51463
213	3.53333	-98.96490	982.04449	78.17226	92.45599	985.27917	74.67604	-148.90823	520.24652	39.05719	141.96835	524.51837	24.37985	-187.79478	92.53503	74.95879	184.98979	96.61029	52.34581	-213.73599	32.59059	-55.34710	196.20480	34.54193	-79.06062	195.38673	527.51508	24.24336	-202.30556	523.12317	40.78167	238.53377	100.87805	73.48545	-240.55405	96.27766	98.07822	-151.45502	1569.11157	112.48717	-253.12335	1601.00378	-206.54077	-248.97481	1632.47070	-493.91580	-238.37827	1632.72693	-598.89734	158.11372	1559.36597	103.41632	258.80615	1556.13599	-217.49335	249.08823	1600.38831	-503.04382	246.99017	1605.64172	-608.40735	-4.72324	1089.41870	93.85139	-6.03776	1202.88062	81.42619	-5.73520	1283.50061	103.45267	-4.74300	1374.98535	157.02707	-0.71275	1527.25439	181.27969	1663134.00000	0.00000	1663136.00000	48.96222	1090.32593	92.87085	-5.66467	1143.07898	91.95307	-3.77553	1091.33362	147.51094	154.62349	1055.34827	-36.73417	-167.48927	1049.90515	-30.85093	39.35862	1059.09729	126.40167	-46.53813	1057.64575	127.97054	190.17383	776.53461	54.61745	-196.73109	772.72125	65.88528	204.32637	334.27237	20.19664	-212.54922	265.28915	39.78636	203.59035	17.92154	-159.19827	-225.43697	13.71308	-134.46442	177.42828	26.11929	111.30623	-198.14384	23.56543	135.27942	-7.31603	2.31619	0.68668	-6.16809	4.09725	0.50849	-4.12048	-0.58731	-0.07881	-3.81961	-0.83710	0.03591	6.02166	5.22548	-4.55546	4.70273	4.03333	10.42970
214	3.55000	-99.21693	982.16357	77.81693	92.20181	985.26965	74.09103	-149.21103	520.31610	39.35506	141.85291	524.48431	24.15689	-188.02579	92.58804	75.13833	185.12808	96.61996	52.40129	-214.24091	32.73392	-55.15429	196.27090	34.41041	-78.94456	195.26935	527.50879	23.90852	-202.60815	523.20135	41.07195	238.69818	100.93993	73.46406	-240.79260	96.30678	98.24444	-150.97659	1569.17236	112.28997	-252.72374	1601.01440	-206.71790	-249.10204	1632.28833	-494.12112	-238.76526	1633.78918	-599.11816	158.55414	1559.35144	103.12628	259.41888	1556.33960	-217.73141	249.26996	1600.87524	-503.22290	246.63397	1605.81824	-608.58936	-4.88513	1089.47998	93.34920	-6.13314	1202.93323	80.95049	-5.75094	1283.52844	103.01981	-4.66170	1374.95300	156.67160	-0.44653	1527.17822	181.08907	1663134.00000	0.00000	1663136.00000	48.79973	1090.35107	92.30424	-5.79311	1143.14026	91.43488	-3.87204	1091.41138	147.00699	154.28281	1055.26184	-37.41576	-167.82635	1050.03516	-31.14600	39.21540	1059.13953	125.85649	-46.68037	1057.74573	127.52843	189.98793	776.55597	54.04301	-197.00653	772.83429	65.82111	204.30113	334.26642	20.03875	-212.80341	265.34631	40.00228	203.63437	17.78565	-159.08336	-226.09995	13.97589	-134.27652	177.51497	26.19453	111.43342	-198.22154	23.57048	135.43021	-7.27697	2.37878	0.63196	-6.10286	4.06192	0.43995	-4.11023	-0.58756	-0.03923	-3.72388	-0.85780	0.02876	6.04475	5.28486	-4.63929	4.68130	4.17126	10.41292
